<svg width="794" height="121" viewBox="0 0 794 121" fill="none" xmlns="http://www.w3.org/2000/svg">
<path d="M773.098 0.0195312C753.952 0.0195312 741.952 8.80599 738.311 26.332L738.098 27.0195H725.422L721.098 48.0195H733.277L723.598 95.0195H754.603L764.279 48.0067H783.629L788.047 27.0195H769.098L769.186 26.6029C770.4 21.207 773.77 18.2435 778.895 18.2435C783.343 18.2435 786.493 18.7122 789.598 19.5195L793.098 2.51953C787.707 0.628906 780.915 0.0195312 773.098 0.0195312Z" fill="#1A253D"/>
<path d="M677.5 27C648.651 27 630.366 38.7139 625.647 60.8285C624.97 63.792 624.699 66.6253 624.699 69.318C624.699 86.443 637.557 95 662.5 95C691.083 95 709.908 82.9378 714.626 60.8285C715.298 57.8597 715.569 55.0316 715.569 52.4691C715.569 35.3441 702.172 27 677.5 27ZM672.835 48C680.111 48 684.022 51.5264 684.022 57.3232C684.022 58.4014 683.887 59.6149 683.616 60.8285C682.001 68.7816 676.069 73.6357 667.439 73.6357C660.158 73.6357 656.251 70.1305 656.251 64.3337C656.251 63.2555 656.387 62.042 656.652 60.8285C658.408 52.8701 664.204 48 672.835 48Z" fill="#1A253D"/>
<path d="M575.358 26.9973L560.995 95H592L599.358 60.016C600.843 53.2764 606.504 48 612.707 48C618.369 48 620.796 48.693 624.03 50.042L628.5 28C625 27.5 623.203 27 617 27C610.797 27 605.155 27.6618 600.301 32.2451L598.28 26.9973H575.358Z" fill="#1A253D"/>
<path d="M480.989 27L461.006 121H492.017L498.521 90.6201C503.37 94.5316 510.463 95 519.5 95C541.88 95 556.76 82.9378 561.479 60.8285C562.286 57.0524 562.693 53.5472 562.693 50.3128C562.693 34.4014 553.104 27 534.5 27C523.443 27 514.291 28.0628 507.146 33.7295L505.125 27H480.989ZM505.26 58.9378C506.745 52.1982 512.135 48 520.224 48C527.099 48 530.875 51.5264 530.875 57.3232C530.875 58.4014 530.739 59.6149 530.469 60.8285C528.854 68.7816 522.922 73.6357 514.833 73.6357C507.823 73.6357 504.182 70.667 504.182 65.4118C504.182 64.5993 504.317 63.6566 504.448 62.7139L505.26 58.9378Z" fill="#1A253D"/>
<path d="M386.624 27L372.337 95H403.343L411.03 58.266C412.509 51.391 417.77 48 425.322 48C431.791 48 435.567 50.443 435.567 55.568C435.567 56.3753 435.567 57.3232 435.296 58.266L427.495 95H458.5L466.306 58.266C466.978 55.1618 467.249 52.1982 467.249 49.5003C467.249 34.943 458.141 27 439 27C428.214 27 419.52 28.0628 412.645 33.4587L410.759 27H386.624Z" fill="#FFC600"/>
<path d="M347.5 27L339.849 63.3857C338.365 70.2659 333.11 73.6357 325.557 73.6357C319.089 73.6357 315.313 71.2087 315.313 66.0837C315.313 65.2764 315.448 64.3337 315.583 63.3857L323.5 27H292.49L284.573 63.3857C283.901 66.4899 283.63 69.4534 283.63 72.1514C283.63 86.7139 292.854 95 312 95C322.786 95 331.354 93.5889 338.229 88.193L340.12 95H364.25L378.51 27H347.5Z" fill="#FFC600"/>
<path d="M241.5 27C212.922 27 194.131 38.7139 189.412 60.8285C188.735 63.792 188.464 66.6253 188.464 69.1878C188.464 86.3076 201.193 95 226 95C250 95 267.334 87.1149 275.021 70.9378H242.662C239.698 74.5785 235.516 76.4639 230.532 76.4639C224.058 76.4639 220.552 73.2295 220.016 67.568H276.506C277.177 65.4118 277.849 63.2555 278.391 60.8285C279.063 57.8597 279.334 55.0316 279.334 52.4691C279.334 35.3441 266.172 27 241.5 27ZM247.245 51.391H224.464C227.427 47.3441 232.011 45.1878 237.271 45.1878C242.532 45.1878 245.901 47.4795 247.245 51.391Z" fill="#1A253D"/>
<path d="M156 0L143.5 27H130L125.676 48H138.59L134.405 68.375C133.868 71.2083 133.462 73.9063 133.462 76.4636C133.462 89.1406 141.453 95 157.5 95C165.318 95 171.5 95 178.493 93.9896L183.077 72.4219C179.707 73.2292 176.608 73.6354 172.155 73.6354C167.978 73.6354 165.822 71.4792 165.822 67.7031C165.822 66.8906 165.957 65.9479 166.223 65.0052L169.697 48.0039H188.348L192.673 27H174L180.271 0H156Z" fill="#1A253D"/>
<path d="M94 27L80 95H111L125 27H94ZM99.5625 0L95.3633 20.3802H126.359L130.559 0H99.5625Z" fill="#1A253D"/>
<path d="M0 27L8.89583 95H49.0729L88.8438 27H57.8385L34.5104 67.8389L30.8698 27H0Z" fill="#1A253D"/>
</svg>
